<?xml version="1.0" encoding="UTF-8"?>
<svg version="1.1" xmlns="http://www.w3.org/2000/svg" width="300" height="300">
<path d="M0 0 C99 0 198 0 300 0 C300 99 300 198 300 300 C201 300 102 300 0 300 C0 201 0 102 0 0 Z " fill="#FBFCFC" transform="translate(0,0)"/>
<path d="M0 0 C0.66022156 0.0028299 1.32044312 0.00565979 2.00067139 0.00857544 C4.09959397 0.01972835 6.19808242 0.04482304 8.296875 0.0703125 C9.72395215 0.08034866 11.15103602 0.0894734 12.578125 0.09765625 C16.06784828 0.11965139 19.55731923 0.15414714 23.046875 0.1953125 C23.046875 2.5053125 23.046875 4.8153125 23.046875 7.1953125 C24.036875 7.5253125 25.026875 7.8553125 26.046875 8.1953125 C26.48 8.7109375 26.913125 9.2265625 27.359375 9.7578125 C29.05278367 11.48260829 29.05278367 11.48260829 31.984375 11.4453125 C35.60786535 11.19600488 35.60786535 11.19600488 39.046875 10.1953125 C39.376875 9.2053125 39.706875 8.2153125 40.046875 7.1953125 C40.706875 7.1953125 41.366875 7.1953125 42.046875 7.1953125 C42.046875 4.8853125 42.046875 2.5753125 42.046875 0.1953125 C65.806875 0.1953125 89.566875 0.1953125 114.046875 0.1953125 C115.036875 3.6603125 115.036875 3.6603125 116.046875 7.1953125 C116.376875 8.1853125 116.706875 9.1753125 117.046875 10.1953125 C120.346875 10.8553125 123.646875 11.5153125 127.046875 12.1953125 C126.0434854 14.71053576 125.03539669 17.22342354 124.01171875 19.73046875 C123.50318359 20.98150391 123.50318359 20.98150391 122.984375 22.2578125 C122.64277344 23.09441406 122.30117187 23.93101562 121.94921875 24.79296875 C117.76076641 35.94404316 118.66554369 50.48194236 123.171875 61.3125 C123.78670059 62.6116349 124.41310585 63.90531302 125.046875 65.1953125 C125.46582031 66.0502832 125.88476562 66.90525391 126.31640625 67.78613281 C133.12466259 81.49173425 140.6551197 94.66565298 148.82421875 107.59375 C149.5200708 108.69795288 149.5200708 108.69795288 150.22998047 109.82446289 C151.13146322 111.25135851 152.03784225 112.67517561 152.94970703 114.09545898 C156.046875 118.97556455 156.046875 118.97556455 156.046875 121.1953125 C135.15873081 121.26539527 114.270606 121.31829711 93.38236809 121.35074902 C83.68358301 121.36621753 73.984871 121.38730679 64.28613281 121.42163086 C55.83265863 121.45153364 47.37923735 121.47088761 38.92571175 121.47757798 C34.44967418 121.48148875 29.97378798 121.4906793 25.49779892 121.51250267 C21.28386079 121.53288169 17.07013622 121.53914344 12.85615349 121.53463554 C11.31060691 121.53546011 9.76505311 121.5414174 8.21954918 121.55292892 C6.10630007 121.56789568 3.99385311 121.56425151 1.88058472 121.55607605 C0.69884611 121.55884143 -0.48289249 121.56160681 -1.70044136 121.56445599 C-6.13875721 121.06075641 -9.44895786 119.72170412 -12.61006737 116.51388836 C-16.12268124 110.95594252 -16.67106705 106.40804236 -16.60009766 99.91137695 C-16.60885925 98.91362244 -16.61762085 97.91586792 -16.62664795 96.88787842 C-16.64854053 93.61099957 -16.63412788 90.33548475 -16.6171875 87.05859375 C-16.62055773 84.77271771 -16.62541207 82.48684343 -16.63168335 80.20097351 C-16.63904029 75.42051051 -16.62838363 70.64051584 -16.60498047 65.86010742 C-16.57644556 59.73305048 -16.59293497 53.60708636 -16.62284279 47.48006916 C-16.64090587 42.76427464 -16.63516296 38.04873955 -16.62220383 33.33293724 C-16.61886963 31.07349709 -16.62295734 28.81403335 -16.63460159 26.55462074 C-16.64729873 23.39946615 -16.62794965 20.24608674 -16.60009766 17.09106445 C-16.61021881 16.15848312 -16.62033997 15.22590179 -16.63076782 14.26506042 C-16.55636515 9.71634655 -16.4517046 7.82026228 -13.53005981 4.15809631 C-8.76708762 0.53026503 -6.06731804 -0.05141795 0 0 Z " fill="#185AA9" transform="translate(66.953125,154.8046875)"/>
<path d="M0 0 C1.14943085 0.37462624 1.14943085 0.37462624 2.32208252 0.75682068 C3.94400929 1.28756712 5.56433254 1.82323616 7.18310547 2.36352539 C9.58879857 3.1662994 11.99878812 3.95469417 14.41015625 4.74023438 C22.07015411 7.25165431 29.66936582 9.88219069 37.21484375 12.71875 C52.45750482 18.42856038 67.95445054 23.45079024 83.38226318 28.63250732 C90.18227342 30.91672054 96.98109655 33.20445555 103.77923393 35.49423599 C106.14200639 36.2894145 108.50542436 37.08265129 110.86891174 37.8757019 C112.30333757 38.35830866 113.73774129 38.84098114 115.17211914 39.32373047 C116.15449051 39.65249428 116.15449051 39.65249428 117.15670776 39.98789978 C119.46904106 40.76757011 121.70499392 41.52827821 123.890625 42.62109375 C123.890625 43.28109375 123.890625 43.94109375 123.890625 44.62109375 C123.25487549 44.79125 122.61912598 44.96140625 121.96411133 45.13671875 C105.48281051 49.55169362 89.02570227 54.04936976 72.58154297 58.60058594 C68.88443603 59.62280495 65.18651122 60.64200821 61.48828125 61.66015625 C51.03149221 64.5396021 40.57601927 67.42176914 30.13745117 70.36669922 C25.05863809 71.79736198 19.97558749 73.21246033 14.890625 74.62109375 C13.83955566 74.91322754 12.78848633 75.20536133 11.70556641 75.50634766 C8.58281195 76.36883177 5.45629469 77.21598742 2.328125 78.05859375 C1.39436035 78.31785645 0.4605957 78.57711914 -0.50146484 78.84423828 C-7.29904469 80.65005875 -13.76930211 81.91484565 -20.546875 79.24609375 C-24.99974492 77.60923738 -29.46340777 76.55468055 -34.109375 75.62109375 C-34.109375 74.96109375 -34.109375 74.30109375 -34.109375 73.62109375 C-34.79257813 73.54632813 -35.47578125 73.4715625 -36.1796875 73.39453125 C-52.74582652 71.23373051 -68.76003878 65.78459988 -84.69921875 60.9453125 C-89.80802125 59.39987513 -94.94556953 57.97126307 -100.109375 56.62109375 C-100.109375 55.96109375 -100.109375 55.30109375 -100.109375 54.62109375 C-98.995625 54.39035156 -97.881875 54.15960938 -96.734375 53.921875 C-88.45398184 52.16664751 -80.40505496 50.18656584 -72.35888672 47.5480957 C-66.00308154 45.5038809 -59.54974586 44.00212404 -53.04785156 42.50073242 C-47.17139901 41.13559883 -41.35206076 39.63764548 -35.546875 37.99609375 C-16.52491882 32.62109375 -16.52491882 32.62109375 -12.109375 32.62109375 C-12.109375 31.30109375 -12.109375 29.98109375 -12.109375 28.62109375 C-32.21953059 33.5752974 -52.31323688 38.63768153 -72.234375 44.30859375 C-83.11540367 47.40484984 -94.0592841 50.1915135 -105.109375 52.62109375 C-105.92631836 52.820979 -106.74326172 53.02086426 -107.58496094 53.22680664 C-110.26688208 53.64569471 -112.06532385 53.45874384 -114.703125 52.875 C-115.57195312 52.68309082 -116.44078125 52.49118164 -117.3359375 52.29345703 C-122.11831036 51.1340684 -126.86718029 49.87196439 -131.609375 48.55859375 C-133.09050781 48.15543945 -133.09050781 48.15543945 -134.6015625 47.74414062 C-141.83881079 45.75637585 -141.83881079 45.75637585 -144.109375 44.62109375 C-144.109375 43.63109375 -144.109375 42.64109375 -144.109375 41.62109375 C-139.37188919 39.58367814 -134.74477147 37.63199703 -129.671875 36.62109375 C-125.29272304 35.74835271 -121.2455557 34.3072614 -117.078125 32.71875 C-114.75205904 31.85871772 -112.42790656 31.05128177 -110.07446289 30.27246094 C-101.81695947 27.52968136 -93.58073611 24.72368705 -85.34146118 21.92672729 C-83.13313212 21.17725326 -80.92461353 20.42833744 -78.71591187 19.67996216 C-66.83909779 15.65468465 -54.97533618 11.60094312 -43.1640625 7.38671875 C-42.24212601 7.05887894 -41.32018951 6.73103912 -40.37031555 6.39326477 C-36.0457425 4.85480636 -31.72556694 3.3057424 -27.41186523 1.73706055 C-25.8697906 1.18623332 -24.32756321 0.63583347 -22.78515625 0.0859375 C-22.10504486 -0.16633606 -21.42493347 -0.41860962 -20.72421265 -0.67852783 C-13.15726229 -3.34795697 -7.34168317 -2.47459835 0 0 Z " fill="#1F3163" transform="translate(156.109375,35.37890625)"/>
<path d="M0 0 C0.8751123 0.01023193 1.75022461 0.02046387 2.65185547 0.03100586 C9.98594586 0.2703231 15.82876268 1.79683097 22.1875 5.5625 C23.07824219 6.08199219 23.96898437 6.60148438 24.88671875 7.13671875 C33.03488418 12.36177551 40.20550192 20.08115513 42.7421875 29.65625 C43.36413748 33.71529197 43.41182796 37.71139229 43.4375 41.8125 C43.458125 42.62074219 43.47875 43.42898437 43.5 44.26171875 C43.55645247 53.0824172 40.63346687 60.08992452 36.625 67.8125 C34.62601642 71.68150048 32.727356 75.48686122 31.1875 79.5625 C30.5275 79.5625 29.8675 79.5625 29.1875 79.5625 C28.960625 80.21476562 28.73375 80.86703125 28.5 81.5390625 C26.74905664 85.57248559 24.49786301 89.20286989 22.1875 92.9375 C21.70273193 93.72535889 21.21796387 94.51321777 20.71850586 95.32495117 C17.47640174 100.5621153 14.15887502 105.74487587 10.75 110.875 C10.34974609 111.47812012 9.94949219 112.08124023 9.53710938 112.70263672 C7.23761118 116.12377041 4.80790993 119.38100002 2.1875 122.5625 C-2.45508385 121.0824102 -4.22088458 117.20179051 -6.5625 113.25 C-7.00005615 112.53013916 -7.4376123 111.81027832 -7.88842773 111.06860352 C-8.78161913 109.59825806 -9.67088039 108.12551781 -10.55615234 106.65039062 C-11.66639464 104.80530859 -12.79021094 102.97018523 -13.92578125 101.140625 C-15.22979439 99.03956975 -16.52663463 96.93404637 -17.81640625 94.82421875 C-19.20920876 92.54830858 -20.61244721 90.28152421 -22.02734375 88.01953125 C-27.3518611 79.42821491 -31.88118576 70.63418938 -35.98291016 61.39697266 C-36.68472197 59.84505566 -37.43665285 58.31595248 -38.19921875 56.79296875 C-43.02615911 46.58017915 -41.796419 34.91119555 -38.125 24.49609375 C-33.1491076 13.37438186 -23.23623508 6.07832012 -12.23046875 1.36303711 C-8.15836274 0.01485096 -4.25954447 -0.07554726 0 0 Z " fill="#61AD39" transform="translate(235.8125,154.4375)"/>
<path d="M0 0 C0 15.51 0 31.02 0 47 C-3.96 47.99 -7.92 48.98 -12 50 C-12.33 50.33 -12.66 50.66 -13 51 C-15.18639453 51.07258946 -17.37500389 51.08373783 -19.5625 51.0625 C-21.35880859 51.04896484 -21.35880859 51.04896484 -23.19140625 51.03515625 C-24.11824219 51.02355469 -25.04507813 51.01195312 -26 51 C-26.03867187 49.31970703 -26.03867187 49.31970703 -26.078125 47.60546875 C-26.13440635 46.13277354 -26.19175368 44.6601188 -26.25 43.1875 C-26.26417969 42.44951172 -26.27835938 41.71152344 -26.29296875 40.95117188 C-26.48596973 36.60446791 -26.48596973 36.60446791 -28.73046875 33.01171875 C-31.346104 31.84571268 -33.20329937 31.59912488 -36.0625 31.625 C-36.91972656 31.61726563 -37.77695313 31.60953125 -38.66015625 31.6015625 C-41.41735003 31.83897757 -41.41735003 31.83897757 -44 35 C-44.33 40.28 -44.66 45.56 -45 51 C-68.76 51 -92.52 51 -117 51 C-117.33 45.72 -117.66 40.44 -118 35 C-122.72700481 31.99718156 -122.72700481 31.99718156 -127.625 31.625 C-128.38039063 31.61726563 -129.13578125 31.60953125 -129.9140625 31.6015625 C-132.02260173 31.88404003 -132.02260173 31.88404003 -133.73046875 33.01171875 C-135.74109138 36.16066312 -135.57570258 39.55896829 -135.6875 43.1875 C-135.790625 45.765625 -135.89375 48.34375 -136 51 C-142.27 51 -148.54 51 -155 51 C-155 34.5 -155 18 -155 1 C-150.6175395 1.62606579 -147.05744209 2.14630945 -142.9453125 3.3828125 C-142.01315918 3.65955811 -141.08100586 3.93630371 -140.12060547 4.22143555 C-139.13205566 4.51961182 -138.14350586 4.81778809 -137.125 5.125 C-134.98473372 5.76032429 -132.84409606 6.39439857 -130.703125 7.02734375 C-129.60162109 7.35331543 -128.50011719 7.67928711 -127.36523438 8.01513672 C-120.82582595 9.92894792 -114.260174 11.74929574 -107.6940918 13.5690918 C-103.3162223 14.78398797 -98.94304915 16.00113163 -94.59765625 17.328125 C-93.38980469 17.69421875 -92.18195313 18.0603125 -90.9375 18.4375 C-89.95652344 18.74558594 -88.97554688 19.05367187 -87.96484375 19.37109375 C-81.00211062 20.84803714 -75.29095476 19.8362529 -68.625 17.8125 C-67.03915176 17.35125548 -65.45321155 16.89032712 -63.8671875 16.4296875 C-63.06249023 16.19217773 -62.25779297 15.95466797 -61.42871094 15.70996094 C-57.5478495 14.57550727 -53.64843693 13.50964333 -49.75 12.4375 C-44.59462571 11.01055132 -39.44940592 9.55485442 -34.3125 8.0625 C-27.85394157 6.21393734 -21.36909862 4.46930745 -14.875 2.75 C-13.86606689 2.47937744 -12.85713379 2.20875488 -11.81762695 1.92993164 C-10.86460693 1.67977295 -9.91158691 1.42961426 -8.9296875 1.171875 C-7.64940674 0.8330127 -7.64940674 0.8330127 -6.34326172 0.48730469 C-4 0 -4 0 0 0 Z " fill="#1E3163" transform="translate(226,100)"/>
<path d="M0 0 C0 1.32 0 2.64 0 4 C-0.91289795 4.23187012 -1.8257959 4.46374023 -2.76635742 4.70263672 C-6.16826354 5.56841912 -9.56936348 6.43724132 -12.9699707 7.30810547 C-14.43906215 7.68366755 -15.90846029 8.05803216 -17.37817383 8.43115234 C-19.49643329 8.96914577 -21.61353516 9.51150353 -23.73046875 10.0546875 C-25.00301514 10.37937012 -26.27556152 10.70405273 -27.58666992 11.03857422 C-30.50713069 11.8611745 -33.19498799 12.86284883 -36 14 C-37.52336161 14.39652954 -39.05692826 14.7555982 -40.59765625 15.078125 C-41.47196289 15.26656982 -42.34626953 15.45501465 -43.24707031 15.64916992 C-44.64070801 15.94658081 -44.64070801 15.94658081 -46.0625 16.25 C-54.54826345 18.10970925 -62.84812994 20.30695758 -71.12524414 22.94433594 C-77.96707679 25.10009143 -84.79125394 27 -92 27 C-91.67 34.92 -91.34 42.84 -91 51 C-90.01 51.33 -89.02 51.66 -88 52 C-86.48988467 55.02023067 -86.61310487 58.15361141 -86.37890625 61.4921875 C-86.16085845 63.97198118 -86.16085845 63.97198118 -84.97265625 65.7734375 C-83.41906746 69.32984558 -83.79239747 72.91851357 -83.875 76.75 C-83.88402344 77.54277344 -83.89304687 78.33554688 -83.90234375 79.15234375 C-83.92582988 81.10169281 -83.96169863 83.05088575 -84 85 C-87.88051156 87.14702756 -90.73417912 88.40225685 -95.1875 88.3125 C-96.44626953 88.30669922 -96.44626953 88.30669922 -97.73046875 88.30078125 C-100 88 -100 88 -103 86 C-103.27813417 83.16482592 -103.37195631 80.58012012 -103.3125 77.75 C-103.31572266 76.99847656 -103.31894531 76.24695313 -103.32226562 75.47265625 C-103.27835884 70.8983675 -102.56513313 67.33608866 -101 63 C-100.73534352 60.38368162 -100.62664256 57.79927692 -100.5390625 55.171875 C-100.36117187 54.45515625 -100.18328125 53.7384375 -100 53 C-98.68 52.34 -97.36 51.68 -96 51 C-96 42.75 -96 34.5 -96 26 C-97.98 25.67 -99.96 25.34 -102 25 C-99.29531686 24.31283148 -96.58514031 23.67591353 -93.859375 23.078125 C-81.19453399 20.27635201 -68.62967581 17.2589386 -56.18530273 13.59399414 C-44.53009058 10.21132473 -32.74205007 7.31141753 -20.97705078 4.33911133 C-20.13696976 4.12606354 -19.29688873 3.91301575 -18.43135071 3.69351196 C-16.83356147 3.28848867 -15.23526195 2.88547171 -13.63639832 2.48471069 C-3.53583797 -0.07686604 -3.53583797 -0.07686604 0 0 Z " fill="#F2B32F" transform="translate(144,64)"/>
<path d="M0 0 C0.68429077 -0.00095673 1.36858154 -0.00191345 2.0736084 -0.00289917 C3.52286877 -0.0035808 4.97213218 -0.00172773 6.42138672 0.00244141 C8.64687928 0.00778998 10.87217001 0.0024959 13.09765625 -0.00390625 C14.50260461 -0.00324547 15.90755285 -0.0019643 17.3125 0 C18.59962891 0.00112793 19.88675781 0.00225586 21.21289062 0.00341797 C24.15625 0.1328125 24.15625 0.1328125 25.15625 1.1328125 C25.2564593 3.41229042 25.28706303 5.69488385 25.2890625 7.9765625 C25.29001923 8.66085327 25.29097595 9.34514404 25.29196167 10.0501709 C25.2926433 11.49943127 25.29079023 12.94869468 25.28662109 14.39794922 C25.28127252 16.62344178 25.2865666 18.84873251 25.29296875 21.07421875 C25.29230797 22.47916711 25.2910268 23.88411535 25.2890625 25.2890625 C25.28793457 26.57619141 25.28680664 27.86332031 25.28564453 29.18945312 C25.15625 32.1328125 25.15625 32.1328125 24.15625 33.1328125 C21.87677208 33.2330218 19.59417865 33.26362553 17.3125 33.265625 C16.62820923 33.26658173 15.94391846 33.26753845 15.2388916 33.26852417 C13.78963123 33.2692058 12.34036782 33.26735273 10.89111328 33.26318359 C8.66562072 33.25783502 6.44032999 33.2631291 4.21484375 33.26953125 C2.80989539 33.26887047 1.40494715 33.2675893 0 33.265625 C-1.28712891 33.26449707 -2.57425781 33.26336914 -3.90039062 33.26220703 C-6.84375 33.1328125 -6.84375 33.1328125 -7.84375 32.1328125 C-7.9439593 29.85333458 -7.97456303 27.57074115 -7.9765625 25.2890625 C-7.97751923 24.60477173 -7.97847595 23.92048096 -7.97946167 23.2154541 C-7.9801433 21.76619373 -7.97829023 20.31693032 -7.97412109 18.86767578 C-7.96877252 16.64218322 -7.9740666 14.41689249 -7.98046875 12.19140625 C-7.97980797 10.78645789 -7.9785268 9.38150965 -7.9765625 7.9765625 C-7.97543457 6.68943359 -7.97430664 5.40230469 -7.97314453 4.07617188 C-7.73365828 -1.37146249 -4.81890952 0.00422288 0 0 Z " fill="#F7F9FB" transform="translate(125.84375,221.8671875)"/>
<path d="M0 0 C0.68429077 -0.00095673 1.36858154 -0.00191345 2.0736084 -0.00289917 C3.52286877 -0.0035808 4.97213218 -0.00172773 6.42138672 0.00244141 C8.64687928 0.00778998 10.87217001 0.0024959 13.09765625 -0.00390625 C14.50260461 -0.00324547 15.90755285 -0.0019643 17.3125 0 C18.59962891 0.00112793 19.88675781 0.00225586 21.21289062 0.00341797 C24.15625 0.1328125 24.15625 0.1328125 25.15625 1.1328125 C25.2564593 3.41229042 25.28706303 5.69488385 25.2890625 7.9765625 C25.29001923 8.66085327 25.29097595 9.34514404 25.29196167 10.0501709 C25.2926433 11.49943127 25.29079023 12.94869468 25.28662109 14.39794922 C25.28127252 16.62344178 25.2865666 18.84873251 25.29296875 21.07421875 C25.29230797 22.47916711 25.2910268 23.88411535 25.2890625 25.2890625 C25.28793457 26.57619141 25.28680664 27.86332031 25.28564453 29.18945312 C25.15625 32.1328125 25.15625 32.1328125 24.15625 33.1328125 C21.87677208 33.2330218 19.59417865 33.26362553 17.3125 33.265625 C16.62820923 33.26658173 15.94391846 33.26753845 15.2388916 33.26852417 C13.78963123 33.2692058 12.34036782 33.26735273 10.89111328 33.26318359 C8.66562072 33.25783502 6.44032999 33.2631291 4.21484375 33.26953125 C2.80989539 33.26887047 1.40494715 33.2675893 0 33.265625 C-1.28712891 33.26449707 -2.57425781 33.26336914 -3.90039062 33.26220703 C-6.84375 33.1328125 -6.84375 33.1328125 -7.84375 32.1328125 C-7.9439593 29.85333458 -7.97456303 27.57074115 -7.9765625 25.2890625 C-7.97751923 24.60477173 -7.97847595 23.92048096 -7.97946167 23.2154541 C-7.9801433 21.76619373 -7.97829023 20.31693032 -7.97412109 18.86767578 C-7.96877252 16.64218322 -7.9740666 14.41689249 -7.98046875 12.19140625 C-7.97980797 10.78645789 -7.9785268 9.38150965 -7.9765625 7.9765625 C-7.97543457 6.68943359 -7.97430664 5.40230469 -7.97314453 4.07617188 C-7.73365828 -1.37146249 -4.81890952 0.00422288 0 0 Z " fill="#F8F9FB" transform="translate(83.84375,221.8671875)"/>
<path d="M0 0 C0.68429077 -0.00095673 1.36858154 -0.00191345 2.0736084 -0.00289917 C3.52286877 -0.0035808 4.97213218 -0.00172773 6.42138672 0.00244141 C8.64687928 0.00778998 10.87217001 0.0024959 13.09765625 -0.00390625 C14.50260461 -0.00324547 15.90755285 -0.0019643 17.3125 0 C18.59962891 0.00112793 19.88675781 0.00225586 21.21289062 0.00341797 C24.15625 0.1328125 24.15625 0.1328125 25.15625 1.1328125 C25.2564593 3.41229042 25.28706303 5.69488385 25.2890625 7.9765625 C25.29001923 8.66085327 25.29097595 9.34514404 25.29196167 10.0501709 C25.2926433 11.49943127 25.29079023 12.94869468 25.28662109 14.39794922 C25.28127252 16.62344178 25.2865666 18.84873251 25.29296875 21.07421875 C25.29230797 22.47916711 25.2910268 23.88411535 25.2890625 25.2890625 C25.28793457 26.57619141 25.28680664 27.86332031 25.28564453 29.18945312 C25.15625 32.1328125 25.15625 32.1328125 24.15625 33.1328125 C21.87677208 33.2330218 19.59417865 33.26362553 17.3125 33.265625 C16.62820923 33.26658173 15.94391846 33.26753845 15.2388916 33.26852417 C13.78963123 33.2692058 12.34036782 33.26735273 10.89111328 33.26318359 C8.66562072 33.25783502 6.44032999 33.2631291 4.21484375 33.26953125 C2.80989539 33.26887047 1.40494715 33.2675893 0 33.265625 C-1.28712891 33.26449707 -2.57425781 33.26336914 -3.90039062 33.26220703 C-6.84375 33.1328125 -6.84375 33.1328125 -7.84375 32.1328125 C-7.9439593 29.85333458 -7.97456303 27.57074115 -7.9765625 25.2890625 C-7.97751923 24.60477173 -7.97847595 23.92048096 -7.97946167 23.2154541 C-7.9801433 21.76619373 -7.97829023 20.31693032 -7.97412109 18.86767578 C-7.96877252 16.64218322 -7.9740666 14.41689249 -7.98046875 12.19140625 C-7.97980797 10.78645789 -7.9785268 9.38150965 -7.9765625 7.9765625 C-7.97543457 6.68943359 -7.97430664 5.40230469 -7.97314453 4.07617188 C-7.73365828 -1.37146249 -4.81890952 0.00422288 0 0 Z " fill="#F8F9FB" transform="translate(125.84375,179.8671875)"/>
<path d="M0 0 C0.68429077 -0.00095673 1.36858154 -0.00191345 2.0736084 -0.00289917 C3.52286877 -0.0035808 4.97213218 -0.00172773 6.42138672 0.00244141 C8.64687928 0.00778998 10.87217001 0.0024959 13.09765625 -0.00390625 C14.50260461 -0.00324547 15.90755285 -0.0019643 17.3125 0 C18.59962891 0.00112793 19.88675781 0.00225586 21.21289062 0.00341797 C24.15625 0.1328125 24.15625 0.1328125 25.15625 1.1328125 C25.2564593 3.41229042 25.28706303 5.69488385 25.2890625 7.9765625 C25.29001923 8.66085327 25.29097595 9.34514404 25.29196167 10.0501709 C25.2926433 11.49943127 25.29079023 12.94869468 25.28662109 14.39794922 C25.28127252 16.62344178 25.2865666 18.84873251 25.29296875 21.07421875 C25.29230797 22.47916711 25.2910268 23.88411535 25.2890625 25.2890625 C25.28793457 26.57619141 25.28680664 27.86332031 25.28564453 29.18945312 C25.15625 32.1328125 25.15625 32.1328125 24.15625 33.1328125 C21.87677208 33.2330218 19.59417865 33.26362553 17.3125 33.265625 C16.62820923 33.26658173 15.94391846 33.26753845 15.2388916 33.26852417 C13.78963123 33.2692058 12.34036782 33.26735273 10.89111328 33.26318359 C8.66562072 33.25783502 6.44032999 33.2631291 4.21484375 33.26953125 C2.80989539 33.26887047 1.40494715 33.2675893 0 33.265625 C-1.28712891 33.26449707 -2.57425781 33.26336914 -3.90039062 33.26220703 C-6.84375 33.1328125 -6.84375 33.1328125 -7.84375 32.1328125 C-7.9439593 29.85333458 -7.97456303 27.57074115 -7.9765625 25.2890625 C-7.97751923 24.60477173 -7.97847595 23.92048096 -7.97946167 23.2154541 C-7.9801433 21.76619373 -7.97829023 20.31693032 -7.97412109 18.86767578 C-7.96877252 16.64218322 -7.9740666 14.41689249 -7.98046875 12.19140625 C-7.97980797 10.78645789 -7.9785268 9.38150965 -7.9765625 7.9765625 C-7.97543457 6.68943359 -7.97430664 5.40230469 -7.97314453 4.07617188 C-7.73365828 -1.37146249 -4.81890952 0.00422288 0 0 Z " fill="#5BAA34" transform="translate(83.84375,179.8671875)"/>
<path d="M0 0 C2.54678478 -0.00804988 5.09356228 -0.0190588 7.64031982 -0.0333252 C20.56485304 -0.09810125 33.4127178 0.05295748 46.30319214 1.06195068 C47.30102722 1.13968216 48.2988623 1.21741364 49.32693481 1.29750061 C55.53427657 1.84151268 61.54982277 2.82123591 67.63131714 4.17523193 C67.30131714 4.83523193 66.97131714 5.49523193 66.63131714 6.17523193 C28.3058135 14.68615626 -16.46239573 9.77915152 -55.30618286 8.30023193 C-56.92546188 8.24155945 -56.92546188 8.24155945 -58.57745361 8.18170166 C-61.62170536 8.06793282 -64.66504944 7.94078724 -67.70852661 7.80804443 C-69.05012344 7.75787674 -69.05012344 7.75787674 -70.41882324 7.70669556 C-75.07481966 7.48346169 -78.98654163 6.93166022 -83.36868286 5.17523193 C-80.45640189 2.26295097 -77.16811678 2.47230107 -73.23977661 2.08929443 C-72.02384071 1.96392807 -72.02384071 1.96392807 -70.78334045 1.83602905 C-63.00547146 1.07177066 -55.2446942 0.71846703 -47.43118286 0.55023193 C-46.31471375 0.52320694 -46.31471375 0.52320694 -45.1756897 0.49563599 C-30.12008954 0.13819891 -15.05933353 0.0447271 0 0 Z " fill="#ECEDF3" transform="translate(198.36868286132813,286.82476806640625)"/>
<path d="M0 0 C3.484375 0.71875 3.484375 0.71875 5.484375 2.28125 C6.90715369 5.74927305 6.93692435 7.97547914 6.484375 11.71875 C4.72631838 14.49595401 2.48120076 16.68021977 0.1328125 18.96484375 C-0.84466446 19.94880882 -0.84466446 19.94880882 -1.84188843 20.95265198 C-3.220571 22.3317152 -4.60798743 23.70209495 -6.00341797 25.06420898 C-8.13551995 27.15125284 -10.23073146 29.2707858 -12.32421875 31.39648438 C-13.66980774 32.73385402 -15.01739974 34.06921199 -16.3671875 35.40234375 C-16.99243317 36.03659775 -17.61767883 36.67085175 -18.26187134 37.32432556 C-22.70536068 41.60389156 -22.70536068 41.60389156 -26.83618164 42.18945312 C-29.91301893 41.64893902 -31.09240099 40.92929856 -33.328125 38.78125 C-33.99714844 38.15089844 -34.66617188 37.52054688 -35.35546875 36.87109375 C-41.83075105 30.41923019 -41.83075105 30.41923019 -44.6328125 27.5390625 C-46.39315839 25.65491102 -46.39315839 25.65491102 -48.515625 24.71875 C-48.890625 21.53125 -48.890625 21.53125 -48.515625 17.71875 C-45.86891973 14.82583959 -44.02341086 12.97653274 -40.09375 12.3046875 C-36.48803434 12.88378729 -35.33166277 14.57178523 -32.953125 17.28125 C-30.8152383 19.83734982 -30.8152383 19.83734982 -28.515625 21.71875 C-24.48425665 21.49393083 -22.65329878 19.09620673 -20.03125 16.24609375 C-19.17789063 15.34697266 -18.32453125 14.44785156 -17.4453125 13.52148438 C-15.66416968 11.61701169 -13.89322284 9.70295001 -12.1328125 7.77929688 C-4.78563336 0.09564782 -4.78563336 0.09564782 0 0 Z " fill="#F6FAF5" transform="translate(258.515625,178.28125)"/>
<path d="M0 0 C0.99 0.33 1.98 0.66 3 1 C2.34 1 1.68 1 1 1 C1 17.5 1 34 1 51 C7.27 51 13.54 51 20 51 C19.84237422 45.91367316 19.84237422 45.91367316 19.63964844 40.82910156 C19.58580098 37.38112715 19.74405038 35.36498646 21.7421875 32.515625 C24.21761652 30.85391832 25.42385125 30.45858037 28.375 30.5 C29.10460937 30.4896875 29.83421875 30.479375 30.5859375 30.46875 C33 31 33 31 39 35 C39 40.28 39 45.56 39 51 C62.76 51 86.52 51 111 51 C111 45.72 111 40.44 111 35 C111.99 34.34 112.98 33.68 114 33 C113.67 33.99 113.34 34.98 113 36 C112.67 41.28 112.34 46.56 112 52 C87.91 52 63.82 52 39 52 C39 52.66 39 53.32 39 54 C63.09 54 87.18 54 112 54 C112 55.98 112 57.96 112 60 C111.67 60 111.34 60 111 60 C111 58.35 111 56.7 111 55 C87.24 55 63.48 55 39 55 C39 57.31 39 59.62 39 62 C36.00763995 64.99236005 33.45175953 66.80203279 29.25 67.375 C24.75867278 66.85676994 22.98695484 65.34254471 20 62 C20 59.69 20 57.38 20 55 C11.09 55 2.18 55 -7 55 C-6.67 54.34 -6.34 53.68 -6 53 C-3.03 52.505 -3.03 52.505 0 52 C0 34.84 0 17.68 0 0 Z " fill="#D7DEE9" transform="translate(70,100)"/>
<path d="M0 0 C1.27230469 0.03287109 1.27230469 0.03287109 2.5703125 0.06640625 C3.41335937 0.06511719 4.25640625 0.06382812 5.125 0.0625 C8.67869628 0.84560936 10.27391374 1.8978437 12.6953125 4.62890625 C13.06764267 7.59563302 13.1761371 9.94746866 13.0078125 12.87890625 C12.98525391 13.62398437 12.96269531 14.3690625 12.93945312 15.13671875 C12.88074811 16.96831525 12.79107007 18.79887278 12.6953125 20.62890625 C16.6553125 20.62890625 20.6153125 20.62890625 24.6953125 20.62890625 C24.6953125 20.95890625 24.6953125 21.28890625 24.6953125 21.62890625 C23.0453125 21.95890625 21.3953125 22.28890625 19.6953125 22.62890625 C19.5921875 23.26828125 19.4890625 23.90765625 19.3828125 24.56640625 C19.1559375 25.24703125 18.9290625 25.92765625 18.6953125 26.62890625 C17.2103125 27.12390625 17.2103125 27.12390625 15.6953125 27.62890625 C15.2621875 28.37140625 14.8290625 29.11390625 14.3828125 29.87890625 C12.23187065 33.38414481 10.14020305 35.37647781 6.6953125 37.62890625 C2.32571746 37.78222537 0.3289344 37.07378971 -3.2421875 34.56640625 C-5.3046875 31.62890625 -5.3046875 31.62890625 -5.3046875 23.62890625 C-29.3946875 23.62890625 -53.4846875 23.62890625 -78.3046875 23.62890625 C-78.3046875 22.96890625 -78.3046875 22.30890625 -78.3046875 21.62890625 C-54.2146875 21.62890625 -30.1246875 21.62890625 -5.3046875 21.62890625 C-5.3046875 16.34890625 -5.3046875 11.06890625 -5.3046875 5.62890625 C-2.3046875 0.62890625 -2.3046875 0.62890625 0 0 Z " fill="#F5F6F9" transform="translate(187.3046875,130.37109375)"/>
<path d="M0 0 C4.64533122 -0.06887641 9.28889112 -0.12860425 13.93432617 -0.16479492 C15.51446536 -0.17988094 17.09456269 -0.2003525 18.67456055 -0.22631836 C20.94590585 -0.26271126 23.21669759 -0.27972762 25.48828125 -0.29296875 C26.54780754 -0.31619453 26.54780754 -0.31619453 27.6287384 -0.33988953 C32.5359035 -0.3415731 32.5359035 -0.3415731 34.8828125 1.38574219 C36.25069895 3.36224245 37.50987101 5.34040093 38.6875 7.4375 C39.12449219 8.19933594 39.56148437 8.96117187 40.01171875 9.74609375 C41 12 41 12 41 16 C27.47 16 13.94 16 0 16 C0 10.72 0 5.44 0 0 Z " fill="#1F3366" transform="translate(162,229)"/>
<path d="M0 0 C7.59 0 15.18 0 23 0 C23 5.28 23 10.56 23 16 C15.41 16 7.82 16 0 16 C0 10.72 0 5.44 0 0 Z " fill="#1C2F62" transform="translate(162,188)"/>
<path d="M0 0 C0 1.32 0 2.64 0 4 C-0.91289795 4.23187012 -1.8257959 4.46374023 -2.76635742 4.70263672 C-6.16826354 5.56841912 -9.56936348 6.43724132 -12.9699707 7.30810547 C-14.43906215 7.68366755 -15.90846029 8.05803216 -17.37817383 8.43115234 C-19.49643329 8.96914577 -21.61353516 9.51150353 -23.73046875 10.0546875 C-25.00301514 10.37937012 -26.27556152 10.70405273 -27.58666992 11.03857422 C-30.50713069 11.8611745 -33.19498799 12.86284883 -36 14 C-37.52336161 14.39652954 -39.05692826 14.7555982 -40.59765625 15.078125 C-41.90947876 15.36091309 -41.90947876 15.36091309 -43.24780273 15.64941406 C-44.17665283 15.84760742 -45.10550293 16.04580078 -46.0625 16.25 C-54.63998379 18.1276011 -63.02399165 20.36304843 -71.38891602 23.03222656 C-75.94076828 24.46749099 -80.25326243 25.46907329 -85 26 C-84.67 25.34 -84.34 24.68 -84 24 C-82.35 24 -80.7 24 -79 24 C-79 23.34 -79 22.68 -79 22 C-80.65 22 -82.3 22 -84 22 C-80.86513658 19.91009105 -78.61193295 19.24628168 -74.98046875 18.3359375 C-73.74482178 18.02237305 -72.5091748 17.70880859 -71.23608398 17.38574219 C-70.57679901 17.2211853 -69.91751404 17.05662842 -69.23825073 16.88708496 C-65.73396788 16.01204417 -62.23462458 15.11757205 -58.734375 14.2265625 C-57.65221962 13.95199219 -57.65221962 13.95199219 -56.54820251 13.671875 C-48.99649033 11.75316644 -41.46546986 9.75956288 -33.9375 7.75 C-32.74600342 7.43337402 -31.55450684 7.11674805 -30.3269043 6.79052734 C-23.23077289 4.89564215 -16.18291104 2.89002638 -9.15844727 0.74316406 C-5.98691647 -0.00307848 -3.2447703 -0.13806233 0 0 Z " fill="#E3AC22" transform="translate(144,64)"/>
<path d="M0 0 C0 1.32 0 2.64 0 4 C-0.90242432 4.23187012 -1.80484863 4.46374023 -2.73461914 4.70263672 C-6.10997452 5.57038081 -9.48511129 6.43896562 -12.86010742 7.30810547 C-14.31575096 7.68278724 -15.77147871 8.05714204 -17.22729492 8.43115234 C-19.33014249 8.97145233 -21.4326758 9.51296093 -23.53515625 10.0546875 C-24.797229 10.37937012 -26.05930176 10.70405273 -27.35961914 11.03857422 C-30.92208166 11.97942174 -34.46101508 12.97518972 -38 14 C-38 13.34 -38 12.68 -38 12 C-37.01 12 -36.02 12 -35 12 C-35 11.34 -35 10.68 -35 10 C-37.64 10.33 -40.28 10.66 -43 11 C-39.67827636 8.78551757 -36.5930916 7.99865734 -32.77734375 7.08984375 C-31.72541588 6.83129356 -31.72541588 6.83129356 -30.65223694 6.56752014 C-28.41531582 6.01858063 -26.17656642 5.47761618 -23.9375 4.9375 C-21.69518706 4.39259178 -19.45331043 3.84599529 -17.21205139 3.29676819 C-15.81823253 2.95562175 -14.42374676 2.6171864 -13.02854919 2.28172302 C-3.35982885 -0.07303976 -3.35982885 -0.07303976 0 0 Z " fill="#E1A921" transform="translate(144,64)"/>
<path d="M0 0 C0.28875 0.639375 0.5775 1.27875 0.875 1.9375 C1.82823451 4.15206079 1.82823451 4.15206079 4 5 C4.33 4.34 4.66 3.68 5 3 C5.33 3.99 5.66 4.98 6 6 C8.97 6.495 8.97 6.495 12 7 C12 6.34 12 5.68 12 5 C12.66 5 13.32 5 14 5 C14 4.34 14 3.68 14 3 C14.99 3 15.98 3 17 3 C17 5.31 17 7.62 17 10 C12.27905982 12.51783476 7.22788162 12.60253551 2 12 C1.01 11.34 0.02 10.68 -1 10 C-1.328125 8.125 -1.328125 8.125 -1.25 6 C-1.22679687 4.948125 -1.22679687 4.948125 -1.203125 3.875 C-1 2 -1 2 0 0 Z " fill="#A06D14" transform="translate(42,140)"/>
<path d="M0 0 C1.99788438 0.34578768 3.99759451 0.68143549 6 1 C6 1.33 6 1.66 6 2 C3.60468067 2.64779076 1.20878252 3.29329009 -1.1875 3.9375 C-1.86103516 4.11990234 -2.53457031 4.30230469 -3.22851562 4.49023438 C-6.80148458 5.4488358 -10.36156738 6.32883282 -14 7 C-14 6.34 -14 5.68 -14 5 C-13.01 5 -12.02 5 -11 5 C-11 4.34 -11 3.68 -11 3 C-13.64 3.33 -16.28 3.66 -19 4 C-15.91433716 1.94289144 -13.63014688 1.21653907 -10.0625 0.3125 C-8.50208984 -0.09548828 -8.50208984 -0.09548828 -6.91015625 -0.51171875 C-4.06289978 -0.98944635 -2.67603947 -0.9053838 0 0 Z " fill="#D7A120" transform="translate(120,71)"/>
<path d="M0 0 C1.98 0 3.96 0 6 0 C3.0071887 5.33673874 0.26606985 9.73503669 -5 13 C-8.8125 12.9375 -8.8125 12.9375 -12 12 C-12.33 11.34 -12.66 10.68 -13 10 C-12.38511719 9.96261719 -11.77023438 9.92523438 -11.13671875 9.88671875 C-10.32847656 9.82097656 -9.52023438 9.75523437 -8.6875 9.6875 C-7.88699219 9.62949219 -7.08648437 9.57148438 -6.26171875 9.51171875 C-3.57869663 8.9046792 -2.64415965 8.17851154 -1 6 C-0.2730774 2.89160979 -0.2730774 2.89160979 0 0 Z " fill="#97B8DA" transform="translate(199,155)"/>
<path d="M0 0 C-2.85267373 0.81806834 -5.70695185 1.62957796 -8.5625 2.4375 C-9.36236328 2.66759766 -10.16222656 2.89769531 -10.98632812 3.13476562 C-15.65697671 4.45017278 -20.17927153 5.43704245 -25 6 C-24.67 5.01 -24.34 4.02 -24 3 C-25.32 2.67 -26.64 2.34 -28 2 C-20.57142857 -0.42857143 -20.57142857 -0.42857143 -17 1 C-17.99 1.495 -17.99 1.495 -19 2 C-14.77602064 1.54743078 -10.78603847 1.00038719 -6.6875 -0.125 C-3 -1 -3 -1 0 0 Z " fill="#CACFDB" transform="translate(217,102)"/>
<path d="M0 0 C0 0.66 0 1.32 0 2 C1.32 2.33 2.64 2.66 4 3 C1.54383175 3.69621314 -0.9144123 4.38224628 -3.375 5.0625 C-4.07367188 5.26166016 -4.77234375 5.46082031 -5.4921875 5.66601562 C-10.7734375 7.11328125 -10.7734375 7.11328125 -13 6 C-12 5 -12 5 -9.4375 4.9375 C-8.2309375 4.9684375 -8.2309375 4.9684375 -7 5 C-7 4.34 -7 3.68 -7 3 C-8.65 3 -10.3 3 -12 3 C-7.78372195 0.18914797 -4.97048208 -0.11045516 0 0 Z " fill="#E1AA23" transform="translate(72,83)"/>
<path d="M0 0 C0 0.66 0 1.32 0 2 C-0.99 2 -1.98 2 -3 2 C-3 2.66 -3 3.32 -3 4 C-6.31070838 5.00109515 -9.30084769 5.10356134 -12.75 5.0625 C-13.73484375 5.05347656 -14.7196875 5.04445313 -15.734375 5.03515625 C-16.48203125 5.02355469 -17.2296875 5.01195313 -18 5 C-17.01 4.67 -16.02 4.34 -15 4 C-15 3.34 -15 2.68 -15 2 C-13.2508503 1.66223316 -11.50063855 1.32996329 -9.75 1 C-8.77546875 0.814375 -7.8009375 0.62875 -6.796875 0.4375 C-4 0 -4 0 0 0 Z " fill="#EAB41E" transform="translate(109,74)"/>
<path d="M0 0 C0.99 0 1.98 0 3 0 C3 2.31 3 4.62 3 7 C1.68 7.33 0.36 7.66 -1 8 C-1 7.34 -1 6.68 -1 6 C-2.32 6.33 -3.64 6.66 -5 7 C-5.33 5.68 -5.66 4.36 -6 3 C-4.68 3.33 -3.36 3.66 -2 4 C-2 3.34 -2 2.68 -2 2 C-1.34 2 -0.68 2 0 2 C0 1.34 0 0.68 0 0 Z " fill="#B27E1C" transform="translate(56,143)"/>
<path d="M0 0 C-3 2 -3 2 -6 2 C-6.33 3.65 -6.66 5.3 -7 7 C-6.01 7.33 -5.02 7.66 -4 8 C-10.75 7.125 -10.75 7.125 -13 6 C-13 5.01 -13 4.02 -13 3 C-11.40084119 2.30093058 -9.79544955 1.61610532 -8.1875 0.9375 C-7.29417969 0.55464844 -6.40085937 0.17179687 -5.48046875 -0.22265625 C-3 -1 -3 -1 0 0 Z " fill="#57648A" transform="translate(25,74)"/>
<path d="M0 0 C1.99788438 0.34578768 3.99759451 0.68143549 6 1 C2.14324813 3.41046992 -1.53555468 3.71654315 -6 4 C-6.99 3.34 -7.98 2.68 -9 2 C-8.34 2 -7.68 2 -7 2 C-7 1.34 -7 0.68 -7 0 C-3.70955471 -1.0968151 -3.16885176 -0.90538622 0 0 Z " fill="#D7A41E" transform="translate(94,78)"/>
<path d="M0 0 C-0.99 0.495 -0.99 0.495 -2 1 C-1.34 1.66 -0.68 2.32 0 3 C-2.31 3.66 -4.62 4.32 -7 5 C-7 4.34 -7 3.68 -7 3 C-6.01 3 -5.02 3 -4 3 C-4 2.34 -4 1.68 -4 1 C-6.64 1.33 -9.28 1.66 -12 2 C-7.89783794 -0.73477471 -4.73617773 -1.57872591 0 0 Z " fill="#C19329" transform="translate(113,73)"/>
<path d="M0 0 C0 1.32 0 2.64 0 4 C-1.98 4.33 -3.96 4.66 -6 5 C-5.67 4.01 -5.34 3.02 -5 2 C-5.99 1.67 -6.98 1.34 -8 1 C-5.29120665 -0.35439668 -2.99066732 -0.06501451 0 0 Z " fill="#CA952D" transform="translate(144,64)"/>
<path d="M0 0 C1.32 0 2.64 0 4 0 C4 1.32 4 2.64 4 4 C6.64 4 9.28 4 12 4 C12 4.33 12 4.66 12 5 C10.37509046 5.02698189 8.75005367 5.04638757 7.125 5.0625 C5.76761719 5.07990234 5.76761719 5.07990234 4.3828125 5.09765625 C2 5 2 5 0 4 C0 2.68 0 1.36 0 0 Z " fill="#A27829" transform="translate(42,147)"/>
<path d="M0 0 C0.28875 0.639375 0.5775 1.27875 0.875 1.9375 C1.82823451 4.15206079 1.82823451 4.15206079 4 5 C4.33 4.34 4.66 3.68 5 3 C4.67 4.32 4.34 5.64 4 7 C2.68 7 1.36 7 0 7 C-0.33 7.99 -0.66 8.98 -1 10 C-1.125 2.25 -1.125 2.25 0 0 Z " fill="#B17E15" transform="translate(42,140)"/>
<path d="M0 0 C0 0.66 0 1.32 0 2 C1.32 2.33 2.64 2.66 4 3 C2.02 3.33 0.04 3.66 -2 4 C-2 3.34 -2 2.68 -2 2 C-5.3 2.33 -8.6 2.66 -12 3 C-7.78372195 0.18914797 -4.97048208 -0.11045516 0 0 Z " fill="#C89D30" transform="translate(72,83)"/>
<path d="M0 0 C-0.99 0.33 -1.98 0.66 -3 1 C-1.68 1.99 -0.36 2.98 1 4 C-2.46941546 3.54177532 -5.67395049 3.10868317 -9 2 C-9 1.34 -9 0.68 -9 0 C-5.62182575 -0.84454356 -3.32534757 -1.10844919 0 0 Z " fill="#5B5C68" transform="translate(65,90)"/>
<path d="M0 0 C-1.15173355 2.46800047 -2.04783565 4.04783565 -4 6 C-4.16687448 8.58354218 -4.16687448 8.58354218 -4 11 C-4.66 11 -5.32 11 -6 11 C-6.48951049 4.63636364 -6.48951049 4.63636364 -4.125 1.5625 C-2 0 -2 0 0 0 Z " fill="#CFE6C1" transform="translate(216,192)"/>
<path d="M0 0 C1.8125 0.875 1.8125 0.875 2.8125 2.875 C-0.14414519 4.3533226 -2.92979737 3.93532783 -6.1875 3.875 C-2.76553468 -0.15803055 -2.76553468 -0.15803055 0 0 Z " fill="#EDB216" transform="translate(85.1875,79.125)"/>
<path d="M0 0 C0 0.66 0 1.32 0 2 C-3.82320557 3.42258812 -6.91281305 4.24042276 -11 4 C-7.26280719 0.48264206 -5.13496308 -0.47767098 0 0 Z " fill="#F7BC13" transform="translate(65,86)"/>
<path d="M0 0 C3.3 0 6.6 0 10 0 C9.67 0.99 9.34 1.98 9 3 C2.84765625 2.4140625 2.84765625 2.4140625 1 2 C0.67 1.34 0.34 0.68 0 0 Z " fill="#ABC1DB" transform="translate(186,165)"/>
<path d="M0 0 C-2 2 -2 2 -3.9453125 2.1953125 C-5.96354167 2.13020833 -7.98177083 2.06510417 -10 2 C-6.80505194 -1.19494806 -4.22040044 -1.35655728 0 0 Z " fill="#CDA330" transform="translate(59,87)"/>
</svg>
